<?xml version="1.0" encoding="UTF-8" standalone="no"?>
<svg
   xmlns:dc="http://purl.org/dc/elements/1.1/"
   xmlns:cc="http://creativecommons.org/ns#"
   xmlns:rdf="http://www.w3.org/1999/02/22-rdf-syntax-ns#"
   xmlns:svg="http://www.w3.org/2000/svg"
   xmlns="http://www.w3.org/2000/svg"
   id="svg11"
   style="fill-rule:evenodd;clip-rule:evenodd;stroke-linejoin:round;stroke-miterlimit:1.41421;"
   xml:space="preserve"
   version="1.1"
   viewBox="0 0 255 255"
   height="100%"
   width="100%"><metadata
     id="metadata17"><rdf:RDF><cc:Work
         rdf:about=""><dc:format>image/svg+xml</dc:format><dc:type
           rdf:resource="http://purl.org/dc/dcmitype/StillImage" /></cc:Work></rdf:RDF></metadata><defs
     id="defs15" /><rect
     style="fill:none;"
     height="255"
     width="255"
     y="0"
     x="0"
     id="Control-Center" /><g
     transform="matrix(1.5,0,0,1.5,-63.75,-63.75)"
     id="g9"><path
       id="path3"
       style="fill:#2196f3"
       d="M 198.333,191.25 H 56.667 C 49.249,191.25 42.5,184.501 42.5,177.083 V 77.917 c 0,-7.418 6.749,-14.167 14.167,-14.167 h 141.666 c 7.418,0 14.167,6.749 14.167,14.167 v 99.166 c 0,7.418 -6.749,14.167 -14.167,14.167 z" /><path
       style="fill:#ffffff;fill-rule:nonzero"
       d="m 116.338,83.99 c 11.933,0 21.607,9.674 21.607,21.607 0,11.932 -9.674,21.606 -21.607,21.606 -11.933,0 -21.606,-9.674 -21.606,-21.606 0,-11.933 9.673,-21.607 21.606,-21.607 z m 0,54.017 c 23.867,0 43.214,9.673 43.214,21.606 v 10.804 H 73.125 v -10.804 c 0,-11.933 19.347,-21.606 43.213,-21.606 z"
       id="account" /><path
       style="fill:#ffc107;fill-rule:nonzero"
       d="m 153.182,139.826 c -6.578,0 -11.91,-5.332 -11.91,-11.909 0,-6.577 5.332,-11.91 11.91,-11.91 6.577,0 11.909,5.333 11.909,11.91 0,6.577 -5.332,11.909 -11.909,11.909 z m 25.278,-8.588 c 0.143,-1.092 0.238,-2.195 0.238,-3.321 0,-1.126 -0.095,-2.229 -0.238,-3.321 l 7.19,-5.628 c 0.64,-0.517 0.827,-1.436 0.402,-2.171 l -6.806,-11.787 c -0.422,-0.735 -1.313,-1.034 -2.082,-0.738 l -8.469,3.413 c -1.756,-1.348 -3.679,-2.488 -5.751,-3.345 l -1.276,-9.017 c -0.129,-0.81 -0.834,-1.433 -1.681,-1.433 h -13.611 c -0.85,0 -1.551,0.623 -1.68,1.433 l -1.276,9.013 c -2.076,0.861 -3.999,2.001 -5.754,3.349 l -8.466,-3.413 c -0.769,-0.296 -1.661,0.003 -2.083,0.738 l -6.805,11.787 c -0.425,0.735 -0.238,1.654 0.402,2.171 l 7.186,5.628 c -0.143,1.088 -0.238,2.195 -0.238,3.321 0,1.126 0.095,2.232 0.238,3.321 l -7.186,5.625 c -0.64,0.52 -0.827,1.438 -0.402,2.174 l 6.805,11.786 c 0.422,0.735 1.314,1.035 2.083,0.739 l 8.469,-3.413 c 1.756,1.347 3.678,2.487 5.751,3.345 l 1.276,9.017 c 0.129,0.81 0.83,1.432 1.68,1.432 h 13.611 c 0.847,0 1.552,-0.622 1.681,-1.432 l 1.276,-9.017 c 2.069,-0.861 3.991,-1.998 5.747,-3.348 l 8.473,3.416 c 0.769,0.296 1.66,-0.004 2.082,-0.739 l 6.806,-11.786 c 0.425,-0.736 0.238,-1.654 -0.402,-2.174 z"
       id="settings" /><path
       id="path7"
       style="fill:#2196f3"
       d="m 160.073,91.889 0.085,0.003 0.085,0.005 0.085,0.007 0.084,0.009 0.083,0.01 0.084,0.013 0.083,0.014 0.081,0.016 0.082,0.018 0.081,0.02 0.08,0.022 0.08,0.023 0.078,0.025 0.077,0.026 0.078,0.028 0.076,0.03 0.076,0.032 0.075,0.033 0.073,0.035 0.072,0.036 0.072,0.037 0.071,0.04 0.07,0.04 0.068,0.042 0.068,0.044 0.067,0.045 0.065,0.046 0.064,0.047 0.064,0.049 0.062,0.051 0.061,0.051 0.06,0.053 0.059,0.054 0.058,0.056 0.056,0.056 0.055,0.057 0.054,0.059 0.053,0.061 0.051,0.061 0.05,0.062 0.049,0.063 0.048,0.065 0.046,0.066 0.044,0.066 0.044,0.068 0.042,0.069 0.04,0.07 0.039,0.07 0.038,0.072 0.036,0.073 0.034,0.073 0.033,0.075 0.032,0.075 0.029,0.076 0.029,0.078 0.026,0.078 0.025,0.079 0.023,0.079 0.021,0.08 0.02,0.081 0.018,0.081 0.016,0.082 0.015,0.089 1.124,7.944 0.185,0.087 0.204,0.099 0.203,0.1 0.202,0.101 0.201,0.104 0.2,0.105 0.199,0.106 0.197,0.108 0.197,0.11 0.196,0.111 0.194,0.112 0.194,0.114 0.192,0.116 0.191,0.117 0.19,0.119 0.19,0.12 0.188,0.121 0.187,0.123 0.186,0.124 0.184,0.126 0.184,0.127 0.148,0.104 7.459,-3.006 0.082,-0.031 0.08,-0.027 0.079,-0.026 0.08,-0.023 0.08,-0.022 0.08,-0.02 0.081,-0.018 0.081,-0.017 0.081,-0.014 0.081,-0.012 0.082,-0.011 0.081,-0.009 0.081,-0.007 0.081,-0.006 0.081,-0.003 0.082,-0.002 h 0.08 l 0.081,0.002 0.08,0.004 0.081,0.005 0.08,0.007 0.08,0.009 0.079,0.01 0.08,0.012 0.079,0.014 0.078,0.016 0.078,0.017 0.078,0.019 0.078,0.021 0.077,0.022 0.075,0.023 0.077,0.026 0.075,0.028 0.075,0.028 0.074,0.031 0.074,0.032 0.073,0.034 0.072,0.035 0.072,0.037 0.071,0.039 0.07,0.04 0.069,0.042 0.069,0.043 0.068,0.045 0.067,0.047 0.066,0.048 0.065,0.05 0.064,0.051 0.063,0.053 0.062,0.054 0.061,0.056 0.06,0.057 0.059,0.059 0.057,0.061 0.056,0.061 0.056,0.064 0.053,0.064 0.052,0.066 0.051,0.068 0.05,0.068 0.048,0.071 0.047,0.071 0.045,0.073 0.036,0.062 6.815,11.803 0.036,0.064 0.04,0.075 0.039,0.076 0.036,0.076 0.035,0.078 0.033,0.077 0.031,0.079 0.029,0.079 0.027,0.079 0.025,0.079 0.023,0.081 0.022,0.079 0.02,0.081 0.018,0.081 0.016,0.081 0.014,0.081 0.012,0.081 0.011,0.081 0.008,0.081 0.007,0.081 0.005,0.082 0.003,0.081 0.002,0.081 v 0.08 l -0.002,0.081 -0.004,0.081 -0.006,0.08 -0.007,0.08 -0.009,0.08 -0.011,0.079 -0.012,0.08 -0.014,0.079 -0.016,0.078 -0.018,0.078 -0.019,0.078 -0.021,0.077 -0.022,0.077 -0.025,0.076 -0.025,0.076 -0.028,0.075 -0.029,0.075 -0.031,0.074 -0.032,0.073 -0.034,0.073 -0.036,0.072 -0.037,0.072 -0.038,0.07 -0.041,0.07 -0.042,0.07 -0.044,0.068 -0.045,0.068 -0.047,0.066 -0.048,0.066 -0.05,0.065 -0.051,0.064 -0.053,0.063 -0.054,0.061 -0.056,0.061 -0.057,0.059 -0.059,0.059 -0.061,0.058 -0.062,0.055 -0.063,0.055 -0.068,0.056 -6.329,4.954 0.016,0.167 0.019,0.222 0.018,0.223 0.016,0.224 0.014,0.225 0.012,0.227 0.01,0.227 0.008,0.229 0.006,0.229 0.004,0.231 10e-4,0.232 -10e-4,0.231 -0.004,0.231 -0.006,0.23 -0.008,0.228 -0.01,0.227 -0.012,0.227 -0.014,0.225 -0.016,0.224 -0.018,0.224 -0.019,0.222 -0.016,0.166 6.331,4.953 0.071,0.058 0.062,0.055 0.062,0.056 0.061,0.058 0.058,0.058 0.057,0.059 0.056,0.061 0.054,0.062 0.052,0.062 0.051,0.064 0.05,0.065 0.048,0.066 0.047,0.066 0.045,0.068 0.043,0.068 0.042,0.069 0.041,0.071 0.038,0.071 0.037,0.071 0.036,0.071 0.034,0.073 0.032,0.074 0.03,0.073 0.029,0.075 0.028,0.076 0.026,0.076 0.024,0.076 0.022,0.077 0.021,0.076 0.019,0.078 0.018,0.078 0.016,0.079 0.014,0.079 0.012,0.079 0.011,0.079 0.009,0.08 0.007,0.08 0.006,0.08 0.004,0.081 0.002,0.081 v 0.081 l -0.002,0.08 -0.003,0.082 -0.005,0.081 -0.007,0.081 -0.008,0.082 -0.011,0.08 -0.012,0.081 -0.014,0.082 -0.016,0.08 -0.018,0.081 -0.02,0.081 -0.022,0.08 -0.023,0.08 -0.025,0.08 -0.027,0.078 -0.029,0.079 -0.031,0.079 -0.033,0.077 -0.035,0.078 -0.036,0.076 -0.039,0.077 -0.04,0.075 -0.036,0.063 -6.815,11.804 -0.036,0.062 -0.045,0.072 -0.047,0.071 -0.048,0.071 -0.05,0.068 -0.05,0.068 -0.053,0.066 -0.054,0.065 -0.055,0.063 -0.055,0.061 -0.058,0.061 -0.059,0.059 -0.06,0.057 -0.061,0.057 -0.062,0.054 -0.063,0.052 -0.063,0.051 -0.066,0.05 -0.066,0.049 -0.068,0.047 -0.067,0.044 -0.068,0.043 -0.071,0.043 -0.069,0.039 -0.07,0.039 -0.073,0.038 -0.072,0.035 -0.072,0.033 -0.075,0.033 -0.074,0.03 -0.075,0.029 -0.076,0.027 -0.075,0.026 -0.076,0.023 -0.077,0.023 -0.078,0.02 -0.079,0.02 -0.078,0.017 -0.076,0.015 -0.08,0.014 -0.08,0.012 -0.078,0.011 -0.081,0.009 -0.08,0.007 -0.081,0.005 -0.08,0.003 -0.081,0.002 h -0.081 l -0.08,-10e-4 -0.082,-0.004 -0.082,-0.005 -0.081,-0.008 -0.08,-0.008 -0.082,-0.011 -0.082,-0.013 -0.08,-0.014 -0.081,-0.016 -0.081,-0.019 -0.08,-0.02 -0.08,-0.021 -0.081,-0.024 -0.08,-0.026 -0.078,-0.027 -0.083,-0.031 -7.461,-3.008 -0.148,0.104 -0.183,0.127 -0.185,0.126 -0.186,0.124 -0.187,0.123 -0.188,0.122 -0.19,0.12 -0.19,0.118 -0.191,0.117 -0.192,0.116 -0.194,0.114 -0.194,0.113 -0.195,0.111 -0.197,0.109 -0.197,0.109 -0.199,0.106 -0.199,0.105 -0.201,0.103 -0.201,0.102 -0.203,0.1 -0.204,0.098 -0.185,0.087 -1.124,7.946 -0.015,0.089 -0.016,0.082 -0.018,0.081 -0.02,0.081 -0.021,0.081 -0.023,0.079 -0.025,0.078 -0.026,0.078 -0.029,0.078 -0.029,0.076 -0.032,0.075 -0.033,0.075 -0.034,0.074 -0.036,0.072 -0.037,0.072 -0.04,0.071 -0.04,0.07 -0.042,0.068 -0.044,0.069 -0.045,0.066 -0.045,0.065 -0.047,0.065 -0.049,0.063 -0.051,0.063 -0.051,0.061 -0.053,0.06 -0.054,0.06 -0.055,0.057 -0.056,0.056 -0.058,0.055 -0.059,0.055 -0.06,0.052 -0.06,0.051 -0.063,0.051 -0.064,0.049 -0.064,0.048 -0.066,0.046 -0.065,0.044 -0.068,0.044 -0.07,0.042 -0.07,0.041 -0.07,0.039 -0.071,0.037 -0.073,0.037 -0.074,0.034 -0.075,0.034 -0.075,0.031 -0.076,0.03 -0.078,0.028 -0.078,0.027 -0.078,0.025 -0.079,0.023 -0.08,0.021 -0.081,0.02 -0.082,0.018 -0.082,0.016 -0.082,0.014 -0.084,0.013 -0.083,0.011 -0.083,0.008 -0.086,0.007 -0.086,0.005 -0.084,0.003 -0.074,0.001 h -13.635 l -0.073,-0.001 -0.084,-0.003 -0.086,-0.005 -0.086,-0.007 -0.083,-0.008 -0.084,-0.011 -0.083,-0.012 -0.082,-0.015 -0.082,-0.016 -0.082,-0.018 -0.082,-0.02 -0.08,-0.021 -0.079,-0.023 -0.079,-0.025 -0.078,-0.027 -0.077,-0.028 -0.077,-0.03 -0.074,-0.031 -0.076,-0.033 -0.073,-0.035 -0.074,-0.037 -0.071,-0.037 -0.07,-0.039 -0.07,-0.041 -0.07,-0.043 -0.068,-0.043 -0.065,-0.044 -0.066,-0.047 -0.065,-0.048 -0.063,-0.048 -0.064,-0.052 -0.06,-0.051 -0.06,-0.052 -0.059,-0.055 -0.057,-0.055 -0.057,-0.057 -0.055,-0.057 -0.054,-0.059 -0.053,-0.061 -0.051,-0.061 -0.05,-0.063 -0.049,-0.063 -0.047,-0.065 -0.046,-0.065 -0.045,-0.066 -0.043,-0.069 -0.042,-0.068 -0.04,-0.07 -0.039,-0.071 -0.038,-0.072 -0.035,-0.072 -0.035,-0.074 -0.033,-0.075 -0.031,-0.075 -0.03,-0.076 -0.028,-0.077 -0.026,-0.078 -0.024,-0.078 -0.024,-0.079 -0.021,-0.081 -0.019,-0.08 -0.018,-0.082 -0.016,-0.081 -0.015,-0.089 -1.124,-7.944 -0.185,-0.087 -0.205,-0.098 -0.203,-0.101 -0.201,-0.101 -0.201,-0.103 -0.2,-0.105 -0.199,-0.107 -0.198,-0.108 -0.196,-0.109 -0.196,-0.111 -0.195,-0.113 -0.193,-0.114 -0.192,-0.116 -0.192,-0.117 -0.19,-0.118 -0.189,-0.12 -0.188,-0.122 -0.187,-0.123 -0.186,-0.124 -0.185,-0.126 -0.183,-0.127 -0.148,-0.103 -7.459,3.005 -0.082,0.031 -0.078,0.027 -0.081,0.026 -0.08,0.024 -0.08,0.021 -0.081,0.02 -0.08,0.019 -0.082,0.016 -0.08,0.014 -0.081,0.013 -0.083,0.011 -0.079,0.008 -0.081,0.008 -0.083,0.005 -0.081,0.004 -0.08,10e-4 h -0.082 l -0.08,-0.002 -0.08,-0.003 -0.082,-0.005 -0.08,-0.007 -0.08,-0.009 -0.078,-0.011 -0.08,-0.012 -0.08,-0.014 -0.077,-0.015 -0.078,-0.017 -0.079,-0.02 -0.077,-0.02 -0.078,-0.023 -0.075,-0.023 -0.075,-0.026 -0.077,-0.027 -0.074,-0.029 -0.074,-0.03 -0.075,-0.033 -0.072,-0.033 -0.072,-0.035 -0.073,-0.038 -0.071,-0.039 -0.069,-0.039 -0.07,-0.043 -0.069,-0.043 -0.067,-0.044 -0.067,-0.047 -0.066,-0.049 -0.066,-0.05 -0.064,-0.051 -0.062,-0.052 -0.062,-0.054 -0.062,-0.057 -0.059,-0.057 -0.059,-0.059 -0.058,-0.061 -0.055,-0.061 -0.055,-0.063 -0.055,-0.065 -0.052,-0.066 -0.051,-0.068 -0.049,-0.068 -0.049,-0.071 -0.046,-0.071 -0.045,-0.072 -0.036,-0.062 -6.816,-11.804 -0.035,-0.063 -0.041,-0.075 -0.038,-0.077 -0.037,-0.076 -0.034,-0.078 -0.033,-0.077 -0.031,-0.078 -0.029,-0.08 -0.027,-0.079 -0.025,-0.079 -0.024,-0.08 -0.021,-0.08 -0.02,-0.081 -0.018,-0.081 -0.016,-0.08 -0.014,-0.082 -0.012,-0.081 -0.011,-0.08 -0.009,-0.082 -0.006,-0.081 -0.006,-0.081 -0.003,-0.081 -0.001,-0.082 v -0.081 l 0.002,-0.08 0.004,-0.08 0.005,-0.081 0.008,-0.08 0.009,-0.08 0.01,-0.079 0.013,-0.079 0.014,-0.079 0.016,-0.079 0.017,-0.078 0.02,-0.078 0.02,-0.076 0.023,-0.077 0.024,-0.076 0.026,-0.076 0.027,-0.076 0.029,-0.075 0.031,-0.073 0.032,-0.074 0.034,-0.073 0.036,-0.071 0.036,-0.071 0.039,-0.071 0.041,-0.071 0.042,-0.069 0.043,-0.068 0.045,-0.068 0.046,-0.066 0.048,-0.066 0.051,-0.065 0.051,-0.064 0.052,-0.062 0.054,-0.062 0.056,-0.061 0.057,-0.059 0.058,-0.058 0.061,-0.058 0.062,-0.056 0.062,-0.055 0.07,-0.058 6.328,-4.953 -0.015,-0.165 -0.02,-0.222 -0.018,-0.223 -0.016,-0.225 -0.014,-0.225 -0.012,-0.227 -0.01,-0.228 -0.008,-0.228 -0.006,-0.23 -0.004,-0.231 -0.001,-0.231 0.001,-0.232 0.004,-0.231 0.006,-0.23 0.008,-0.228 0.01,-0.228 0.012,-0.226 0.014,-0.226 0.016,-0.224 0.018,-0.223 0.02,-0.223 0.015,-0.165 -6.326,-4.954 -0.068,-0.056 -0.062,-0.055 -0.062,-0.055 -0.061,-0.058 -0.059,-0.059 -0.057,-0.059 -0.056,-0.061 -0.054,-0.061 -0.053,-0.063 -0.052,-0.064 -0.049,-0.065 -0.049,-0.065 -0.047,-0.068 -0.045,-0.067 -0.043,-0.068 -0.042,-0.069 -0.041,-0.071 -0.038,-0.07 -0.038,-0.072 -0.035,-0.072 -0.034,-0.073 -0.033,-0.073 -0.03,-0.074 -0.029,-0.075 -0.028,-0.075 -0.026,-0.076 -0.024,-0.076 -0.022,-0.077 -0.021,-0.077 -0.019,-0.078 -0.018,-0.078 -0.016,-0.078 -0.014,-0.079 -0.012,-0.08 -0.011,-0.079 -0.009,-0.08 -0.008,-0.08 -0.005,-0.081 -0.004,-0.08 -0.002,-0.08 v -0.081 l 0.001,-0.082 0.004,-0.081 0.005,-0.081 0.006,-0.081 0.009,-0.081 0.011,-0.081 0.012,-0.081 0.014,-0.081 0.016,-0.081 0.018,-0.081 0.02,-0.081 0.021,-0.08 0.024,-0.08 0.025,-0.079 0.027,-0.079 0.029,-0.079 0.031,-0.079 0.033,-0.077 0.034,-0.077 0.037,-0.077 0.038,-0.076 0.041,-0.076 0.036,-0.063 6.815,-11.804 0.036,-0.061 0.045,-0.073 0.047,-0.071 0.048,-0.071 0.049,-0.068 0.051,-0.068 0.052,-0.065 0.054,-0.065 0.056,-0.064 0.056,-0.061 0.057,-0.061 0.059,-0.059 0.06,-0.057 0.061,-0.056 0.062,-0.054 0.063,-0.053 0.064,-0.051 0.065,-0.05 0.066,-0.048 0.067,-0.047 0.068,-0.045 0.068,-0.043 0.07,-0.042 0.07,-0.04 0.071,-0.039 0.071,-0.037 0.073,-0.035 0.073,-0.034 0.074,-0.032 0.074,-0.031 0.074,-0.028 0.076,-0.028 0.077,-0.026 0.075,-0.023 0.077,-0.022 0.078,-0.021 0.078,-0.019 0.078,-0.017 0.078,-0.016 0.079,-0.014 0.08,-0.012 0.079,-0.01 0.08,-0.009 0.08,-0.007 0.08,-0.005 0.081,-0.004 0.08,-0.002 h 0.081 l 0.082,0.002 0.081,0.003 0.08,0.006 0.082,0.007 0.081,0.009 0.082,0.011 0.081,0.012 0.08,0.015 0.082,0.016 0.08,0.018 0.081,0.02 0.08,0.022 0.079,0.023 0.08,0.026 0.08,0.027 0.082,0.031 7.456,3.006 0.147,-0.104 0.184,-0.127 0.185,-0.126 0.186,-0.124 0.187,-0.123 0.188,-0.121 0.189,-0.12 0.19,-0.119 0.191,-0.117 0.193,-0.116 0.193,-0.114 0.195,-0.113 0.196,-0.111 0.196,-0.11 0.198,-0.108 0.199,-0.106 0.2,-0.105 0.201,-0.104 0.202,-0.101 0.203,-0.1 0.204,-0.099 0.188,-0.088 1.124,-7.941 0.015,-0.089 0.016,-0.082 0.018,-0.081 0.019,-0.081 0.021,-0.08 0.023,-0.079 0.025,-0.079 0.026,-0.078 0.028,-0.077 0.03,-0.076 0.031,-0.075 0.033,-0.075 0.034,-0.073 0.036,-0.073 0.038,-0.072 0.039,-0.07 0.04,-0.07 0.042,-0.069 0.043,-0.068 0.045,-0.066 0.046,-0.066 0.047,-0.065 0.049,-0.063 0.05,-0.063 0.051,-0.061 0.053,-0.06 0.054,-0.059 0.055,-0.058 0.056,-0.056 0.058,-0.056 0.059,-0.054 0.06,-0.053 0.061,-0.051 0.062,-0.051 0.064,-0.049 0.064,-0.048 0.066,-0.046 0.066,-0.045 0.068,-0.043 0.069,-0.042 0.07,-0.041 0.071,-0.039 0.072,-0.038 0.073,-0.036 0.073,-0.035 0.074,-0.033 0.076,-0.032 0.077,-0.03 0.077,-0.028 0.078,-0.027 0.078,-0.024 0.08,-0.024 0.081,-0.021 0.081,-0.02 0.081,-0.018 0.082,-0.016 0.083,-0.014 0.083,-0.013 0.084,-0.01 0.084,-0.009 0.085,-0.007 0.085,-0.005 0.085,-0.003 h 0.074 13.634 z m -13.697,2.001 -0.039,0.001 -0.04,10e-4 -0.039,0.002 -0.039,0.003 -0.039,0.004 -0.038,0.005 -0.039,0.006 -0.038,0.006 -0.037,0.008 -0.038,0.008 -0.037,0.009 -0.036,0.01 -0.037,0.01 -0.036,0.012 -0.036,0.012 -0.035,0.013 -0.035,0.014 -0.034,0.014 -0.035,0.015 -0.033,0.016 -0.034,0.017 -0.033,0.017 -0.032,0.018 -0.032,0.019 -0.032,0.019 -0.031,0.02 -0.031,0.021 -0.03,0.021 -0.029,0.022 -0.03,0.023 -0.028,0.023 -0.028,0.024 -0.028,0.024 -0.027,0.025 -0.027,0.026 -0.026,0.026 -0.025,0.026 -0.025,0.027 -0.024,0.028 -0.024,0.028 -0.023,0.029 -0.023,0.029 -0.021,0.03 -0.022,0.03 -0.02,0.031 -0.02,0.031 -0.019,0.032 -0.019,0.032 -0.018,0.033 -0.017,0.033 -0.016,0.033 -0.016,0.034 -0.015,0.034 -0.015,0.034 -0.013,0.035 -0.013,0.036 -0.012,0.035 -0.011,0.036 -0.011,0.036 -0.01,0.037 -0.008,0.037 -0.009,0.037 -0.007,0.038 -0.006,0.038 -1.276,9.013 -0.195,0.082 -0.193,0.083 -0.192,0.085 -0.192,0.086 -0.19,0.088 -0.19,0.089 -0.188,0.092 -0.188,0.092 -0.187,0.094 -0.186,0.096 -0.185,0.097 -0.184,0.099 -0.183,0.1 -0.183,0.101 -0.181,0.103 -0.18,0.105 -0.18,0.106 -0.178,0.107 -0.178,0.109 -0.176,0.11 -0.176,0.111 -0.175,0.113 -0.174,0.114 -0.172,0.116 -0.172,0.117 -0.171,0.118 -0.17,0.119 -0.169,0.121 -0.168,0.122 -0.167,0.123 -0.166,0.125 -0.165,0.126 -8.466,-3.413 -0.036,-0.014 -0.037,-0.012 -0.036,-0.012 -0.037,-0.011 -0.036,-0.01 -0.037,-0.009 -0.037,-0.008 -0.037,-0.008 -0.037,-0.006 -0.037,-0.006 -0.038,-0.005 -0.037,-0.004 -0.037,-0.003 -0.037,-0.003 -0.037,-0.001 -0.038,-10e-4 h -0.037 l -0.037,10e-4 -0.037,0.001 -0.037,0.003 -0.037,0.003 -0.037,0.004 -0.036,0.005 -0.037,0.005 -0.036,0.007 -0.036,0.007 -0.036,0.008 -0.036,0.009 -0.036,0.009 -0.035,0.01 -0.036,0.011 -0.035,0.012 -0.034,0.013 -0.035,0.013 -0.034,0.014 -0.034,0.015 -0.033,0.015 -0.034,0.017 -0.032,0.017 -0.033,0.017 -0.032,0.019 -0.032,0.019 -0.032,0.02 -0.031,0.02 -0.03,0.022 -0.03,0.022 -0.03,0.022 -0.029,0.024 -0.029,0.024 -0.029,0.025 -0.027,0.025 -0.028,0.027 -0.026,0.026 -0.027,0.028 -0.025,0.028 -0.026,0.029 -0.024,0.03 -0.024,0.03 -0.023,0.031 -0.023,0.031 -0.022,0.033 -0.022,0.032 -0.02,0.034 -0.021,0.034 -6.805,11.787 -0.019,0.034 -0.019,0.035 -0.018,0.035 -0.017,0.036 -0.015,0.035 -0.016,0.036 -0.014,0.036 -0.013,0.036 -0.012,0.036 -0.012,0.037 -0.011,0.036 -0.01,0.037 -0.009,0.037 -0.008,0.036 -0.007,0.037 -0.007,0.037 -0.005,0.037 -0.005,0.038 -0.004,0.037 -0.003,0.037 -0.002,0.037 -0.002,0.037 -0.001,0.037 0.001,0.037 v 0.037 l 0.002,0.037 0.003,0.037 0.003,0.037 0.004,0.037 0.005,0.036 0.006,0.037 0.006,0.036 0.008,0.036 0.008,0.036 0.009,0.036 0.009,0.035 0.011,0.036 0.011,0.035 0.012,0.035 0.012,0.034 0.014,0.035 0.014,0.034 0.015,0.034 0.015,0.033 0.017,0.033 0.017,0.033 0.018,0.033 0.018,0.032 0.019,0.031 0.02,0.032 0.021,0.031 0.022,0.03 0.022,0.03 0.022,0.03 0.024,0.029 0.024,0.029 0.025,0.028 0.026,0.028 0.026,0.027 0.027,0.027 0.028,0.026 0.028,0.026 0.029,0.025 0.03,0.025 7.186,5.628 -0.026,0.204 -0.025,0.205 -0.024,0.205 -0.022,0.205 -0.022,0.207 -0.019,0.206 -0.018,0.207 -0.017,0.207 -0.014,0.208 -0.013,0.208 -0.012,0.209 -0.009,0.209 -0.007,0.209 -0.006,0.21 -0.003,0.211 -10e-4,0.211 10e-4,0.211 0.003,0.21 0.006,0.21 0.007,0.21 0.009,0.209 0.012,0.208 0.013,0.209 0.014,0.207 0.017,0.208 0.018,0.206 0.019,0.207 0.022,0.206 0.022,0.206 0.024,0.205 0.025,0.205 0.026,0.204 -7.186,5.625 -0.03,0.024 -0.029,0.025 -0.028,0.026 -0.028,0.027 -0.027,0.026 -0.026,0.028 -0.026,0.028 -0.025,0.028 -0.024,0.029 -0.024,0.029 -0.022,0.03 -0.022,0.03 -0.022,0.031 -0.021,0.031 -0.02,0.031 -0.019,0.032 -0.018,0.033 -0.018,0.032 -0.017,0.033 -0.017,0.033 -0.015,0.034 -0.015,0.034 -0.014,0.034 -0.014,0.034 -0.012,0.035 -0.012,0.035 -0.011,0.035 -0.011,0.035 -0.009,0.036 -0.009,0.036 -0.008,0.036 -0.008,0.036 -0.006,0.036 -0.006,0.037 -0.005,0.036 -0.004,0.037 -0.003,0.037 -0.003,0.037 -0.002,0.037 v 0.037 l -0.001,0.037 0.001,0.037 0.002,0.037 0.002,0.037 0.003,0.038 0.004,0.037 0.005,0.037 0.005,0.037 0.007,0.037 0.007,0.037 0.008,0.037 0.009,0.037 0.01,0.036 0.011,0.037 0.012,0.036 0.012,0.037 0.013,0.036 0.014,0.036 0.016,0.035 0.015,0.036 0.017,0.035 0.018,0.035 0.019,0.035 0.019,0.035 6.805,11.786 0.021,0.034 0.02,0.034 0.022,0.033 0.022,0.032 0.023,0.032 0.023,0.03 0.024,0.031 0.024,0.029 0.026,0.029 0.025,0.028 0.027,0.028 0.026,0.027 0.028,0.026 0.027,0.025 0.029,0.025 0.029,0.024 0.029,0.024 0.03,0.023 0.03,0.022 0.03,0.021 0.031,0.021 0.032,0.019 0.032,0.02 0.032,0.018 0.033,0.018 0.032,0.017 0.034,0.016 0.033,0.016 0.034,0.014 0.034,0.014 0.035,0.014 0.034,0.012 0.035,0.012 0.036,0.011 0.035,0.01 0.036,0.01 0.036,0.009 0.036,0.008 0.036,0.007 0.036,0.006 0.037,0.006 0.036,0.005 0.037,0.004 0.037,0.003 0.037,0.002 0.037,0.002 0.037,0.001 h 0.037 l 0.038,-0.001 0.037,-0.002 0.037,-0.002 0.037,-0.003 0.037,-0.005 0.038,-0.004 0.037,-0.006 0.037,-0.007 0.037,-0.007 0.037,-0.009 0.037,-0.009 0.036,-0.01 0.037,-0.011 0.036,-0.011 0.037,-0.013 0.036,-0.013 8.469,-3.413 0.165,0.126 0.166,0.124 0.167,0.123 0.168,0.122 0.169,0.121 0.17,0.119 0.171,0.119 0.172,0.116 0.173,0.116 0.173,0.114 0.175,0.113 0.176,0.111 0.176,0.11 0.178,0.109 0.178,0.107 0.18,0.106 0.18,0.104 0.181,0.103 0.182,0.102 0.183,0.1 0.184,0.098 0.185,0.097 0.186,0.096 0.187,0.094 0.187,0.092 0.189,0.091 0.189,0.089 0.191,0.088 0.191,0.086 0.192,0.085 0.193,0.083 0.194,0.081 1.276,9.017 0.006,0.038 0.007,0.037 0.009,0.037 0.008,0.037 0.01,0.037 0.011,0.036 0.011,0.036 0.012,0.036 0.013,0.035 0.013,0.035 0.015,0.035 0.015,0.034 0.016,0.034 0.016,0.033 0.017,0.033 0.018,0.032 0.019,0.032 0.019,0.032 0.02,0.031 0.02,0.031 0.022,0.03 0.021,0.03 0.023,0.029 0.023,0.029 0.024,0.028 0.024,0.028 0.025,0.027 0.025,0.027 0.026,0.026 0.027,0.025 0.027,0.025 0.028,0.025 0.028,0.024 0.028,0.023 0.03,0.022 0.029,0.022 0.03,0.022 0.031,0.02 0.031,0.02 0.032,0.02 0.032,0.018 0.032,0.018 0.033,0.018 0.034,0.016 0.033,0.016 0.035,0.015 0.034,0.015 0.035,0.013 0.035,0.013 0.036,0.012 0.036,0.012 0.037,0.01 0.036,0.01 0.037,0.009 0.038,0.009 0.037,0.007 0.038,0.006 0.039,0.006 0.038,0.005 0.039,0.004 0.039,0.003 0.039,0.002 0.04,0.002 h 0.039 13.611 0.04 l 0.039,-0.002 0.039,-0.002 0.039,-0.003 0.039,-0.004 0.038,-0.005 0.038,-0.006 0.038,-0.006 0.038,-0.007 0.037,-0.009 0.037,-0.009 0.037,-0.01 0.036,-0.01 0.036,-0.012 0.036,-0.012 0.035,-0.013 0.035,-0.013 0.035,-0.015 0.034,-0.015 0.033,-0.016 0.034,-0.016 0.033,-0.018 0.032,-0.018 0.032,-0.018 0.032,-0.02 0.031,-0.02 0.031,-0.02 0.03,-0.022 0.03,-0.022 0.029,-0.022 0.029,-0.023 0.028,-0.024 0.028,-0.025 0.027,-0.025 0.026,-0.025 0.026,-0.026 0.026,-0.027 0.025,-0.027 0.024,-0.028 0.024,-0.028 0.023,-0.029 0.022,-0.029 0.022,-0.03 0.022,-0.03 0.02,-0.031 0.02,-0.031 0.019,-0.032 0.019,-0.032 0.018,-0.032 0.017,-0.033 0.017,-0.033 0.016,-0.034 0.015,-0.034 0.014,-0.035 0.014,-0.035 0.013,-0.035 0.012,-0.036 0.011,-0.036 0.01,-0.036 0.01,-0.037 0.009,-0.037 0.008,-0.037 0.008,-0.037 0.006,-0.038 1.276,-9.017 0.194,-0.082 0.192,-0.083 0.192,-0.084 0.191,-0.087 0.19,-0.088 0.189,-0.089 0.189,-0.091 0.187,-0.092 0.186,-0.094 0.186,-0.096 0.185,-0.097 0.184,-0.099 0.183,-0.1 0.182,-0.101 0.181,-0.103 0.18,-0.105 0.179,-0.105 0.179,-0.108 0.177,-0.108 0.177,-0.11 0.175,-0.112 0.175,-0.113 0.174,-0.114 0.172,-0.115 0.172,-0.117 0.171,-0.119 0.17,-0.119 0.169,-0.121 0.168,-0.122 0.167,-0.124 0.166,-0.124 0.165,-0.126 8.473,3.416 0.036,0.013 0.036,0.013 0.037,0.011 0.036,0.011 0.037,0.01 0.037,0.009 0.037,0.009 0.037,0.007 0.037,0.007 0.037,0.006 0.037,0.004 0.037,0.005 0.038,0.003 0.037,0.002 0.037,0.002 0.037,0.001 h 0.037 l 0.038,-0.001 0.037,-0.002 0.037,-0.002 0.036,-0.003 0.037,-0.004 0.037,-0.005 0.036,-0.006 0.037,-0.006 0.036,-0.007 0.036,-0.008 0.036,-0.009 0.036,-0.01 0.035,-0.01 0.035,-0.011 0.035,-0.012 0.035,-0.012 0.034,-0.014 0.035,-0.014 0.033,-0.014 0.034,-0.016 0.033,-0.016 0.033,-0.017 0.033,-0.018 0.032,-0.018 0.032,-0.02 0.031,-0.019 0.031,-0.021 0.031,-0.021 0.03,-0.022 0.03,-0.023 0.029,-0.024 0.029,-0.024 0.028,-0.025 0.028,-0.025 0.027,-0.026 0.027,-0.027 0.026,-0.028 0.026,-0.028 0.025,-0.029 0.025,-0.029 0.024,-0.031 0.023,-0.03 0.023,-0.032 0.022,-0.032 0.021,-0.033 0.021,-0.034 0.02,-0.034 6.806,-11.786 0.019,-0.035 0.019,-0.035 0.017,-0.035 0.017,-0.035 0.016,-0.036 0.015,-0.035 0.014,-0.036 0.014,-0.036 0.012,-0.037 0.012,-0.036 0.01,-0.037 0.01,-0.036 0.009,-0.037 0.008,-0.037 0.008,-0.037 0.006,-0.037 0.006,-0.037 0.005,-0.037 0.004,-0.037 0.003,-0.038 0.002,-0.037 0.002,-0.037 v -0.037 -0.037 l -0.001,-0.037 -0.002,-0.037 -0.002,-0.037 -0.003,-0.037 -0.005,-0.037 -0.005,-0.036 -0.005,-0.037 -0.007,-0.036 -0.007,-0.036 -0.008,-0.036 -0.009,-0.036 -0.01,-0.036 -0.01,-0.035 -0.011,-0.035 -0.012,-0.035 -0.013,-0.035 -0.013,-0.034 -0.014,-0.034 -0.015,-0.034 -0.016,-0.034 -0.016,-0.033 -0.017,-0.033 -0.018,-0.032 -0.018,-0.033 -0.02,-0.032 -0.02,-0.031 -0.02,-0.031 -0.022,-0.031 -0.022,-0.03 -0.023,-0.03 -0.023,-0.029 -0.025,-0.029 -0.024,-0.028 -0.026,-0.028 -0.026,-0.028 -0.027,-0.026 -0.028,-0.027 -0.028,-0.026 -0.029,-0.025 -0.03,-0.024 -7.19,-5.625 0.026,-0.205 0.026,-0.205 0.023,-0.206 0.023,-0.205 0.021,-0.207 0.019,-0.206 0.018,-0.207 0.017,-0.207 0.015,-0.208 0.013,-0.208 0.011,-0.208 0.009,-0.209 0.008,-0.209 0.005,-0.21 0.003,-0.211 0.001,-0.21 -0.001,-0.211 -0.003,-0.211 -0.005,-0.209 -0.008,-0.21 -0.009,-0.209 -0.011,-0.208 -0.013,-0.208 -0.015,-0.208 -0.017,-0.207 -0.018,-0.207 -0.019,-0.206 -0.021,-0.206 -0.023,-0.206 -0.023,-0.205 -0.026,-0.206 -0.026,-0.204 7.19,-5.628 0.03,-0.025 0.029,-0.025 0.028,-0.026 0.028,-0.026 0.027,-0.027 0.026,-0.027 0.026,-0.028 0.024,-0.028 0.025,-0.029 0.023,-0.029 0.023,-0.03 0.022,-0.03 0.022,-0.03 0.02,-0.031 0.02,-0.032 0.02,-0.031 0.018,-0.032 0.018,-0.033 0.017,-0.033 0.016,-0.033 0.016,-0.033 0.015,-0.034 0.014,-0.034 0.013,-0.035 0.013,-0.034 0.012,-0.035 0.011,-0.035 0.01,-0.036 0.01,-0.035 0.009,-0.036 0.008,-0.036 0.007,-0.036 0.007,-0.036 0.005,-0.037 0.005,-0.036 0.005,-0.037 0.003,-0.037 0.002,-0.037 0.002,-0.037 0.001,-0.037 v -0.037 -0.037 l -0.002,-0.037 -0.002,-0.037 -0.003,-0.037 -0.004,-0.037 -0.005,-0.038 -0.006,-0.037 -0.006,-0.037 -0.008,-0.037 -0.008,-0.036 -0.009,-0.037 -0.01,-0.037 -0.01,-0.036 -0.012,-0.037 -0.012,-0.036 -0.014,-0.036 -0.014,-0.036 -0.015,-0.036 -0.016,-0.035 -0.017,-0.036 -0.017,-0.035 -0.019,-0.035 -0.019,-0.034 -6.806,-11.787 -0.02,-0.034 -0.021,-0.034 -0.021,-0.032 -0.022,-0.033 -0.023,-0.031 -0.023,-0.031 -0.024,-0.03 -0.025,-0.03 -0.025,-0.029 -0.026,-0.028 -0.026,-0.028 -0.027,-0.026 -0.027,-0.027 -0.028,-0.025 -0.028,-0.025 -0.029,-0.024 -0.029,-0.024 -0.03,-0.022 -0.03,-0.022 -0.031,-0.022 -0.031,-0.02 -0.031,-0.02 -0.032,-0.019 -0.032,-0.019 -0.033,-0.017 -0.033,-0.017 -0.033,-0.017 -0.034,-0.015 -0.033,-0.015 -0.035,-0.014 -0.034,-0.013 -0.035,-0.013 -0.035,-0.012 -0.035,-0.011 -0.035,-0.01 -0.036,-0.009 -0.036,-0.009 -0.036,-0.008 -0.036,-0.007 -0.037,-0.007 -0.036,-0.005 -0.037,-0.005 -0.037,-0.004 -0.036,-0.003 -0.037,-0.003 -0.037,-0.001 -0.038,-10e-4 h -0.037 l -0.037,10e-4 -0.037,0.001 -0.037,0.003 -0.038,0.003 -0.037,0.004 -0.037,0.005 -0.037,0.006 -0.037,0.006 -0.037,0.008 -0.037,0.008 -0.037,0.009 -0.037,0.01 -0.036,0.011 -0.037,0.012 -0.036,0.012 -0.036,0.014 -8.469,3.413 -0.165,-0.126 -0.167,-0.125 -0.167,-0.123 -0.168,-0.122 -0.169,-0.121 -0.169,-0.119 -0.171,-0.118 -0.172,-0.117 -0.173,-0.115 -0.174,-0.115 -0.174,-0.112 -0.176,-0.112 -0.177,-0.11 -0.177,-0.109 -0.179,-0.107 -0.179,-0.106 -0.18,-0.104 -0.182,-0.103 -0.182,-0.101 -0.183,-0.1 -0.184,-0.099 -0.185,-0.097 -0.185,-0.096 -0.187,-0.093 -0.188,-0.093 -0.188,-0.091 -0.19,-0.089 -0.19,-0.088 -0.191,-0.086 -0.192,-0.084 -0.193,-0.083 -0.194,-0.081 -1.276,-9.017 -0.006,-0.038 -0.008,-0.038 -0.008,-0.037 -0.009,-0.037 -0.01,-0.037 -0.01,-0.036 -0.011,-0.036 -0.012,-0.035 -0.013,-0.036 -0.014,-0.035 -0.014,-0.034 -0.015,-0.034 -0.016,-0.034 -0.017,-0.033 -0.017,-0.033 -0.018,-0.033 -0.019,-0.032 -0.019,-0.032 -0.02,-0.031 -0.02,-0.031 -0.022,-0.03 -0.022,-0.03 -0.022,-0.029 -0.023,-0.029 -0.024,-0.028 -0.024,-0.028 -0.025,-0.027 -0.026,-0.026 -0.026,-0.026 -0.026,-0.026 -0.027,-0.025 -0.028,-0.024 -0.028,-0.024 -0.029,-0.023 -0.029,-0.023 -0.03,-0.022 -0.03,-0.021 -0.031,-0.021 -0.031,-0.02 -0.032,-0.019 -0.032,-0.019 -0.032,-0.018 -0.033,-0.017 -0.034,-0.017 -0.033,-0.016 -0.034,-0.015 -0.035,-0.014 -0.035,-0.014 -0.035,-0.013 -0.036,-0.012 -0.036,-0.012 -0.036,-0.01 -0.037,-0.01 -0.037,-0.009 -0.037,-0.008 -0.038,-0.008 -0.038,-0.006 -0.038,-0.006 -0.038,-0.005 -0.039,-0.004 -0.039,-0.003 -0.039,-0.002 -0.039,-10e-4 -0.04,-0.001 z m 6.96,22.118 0.153,0.003 0.153,0.005 0.153,0.007 0.152,0.009 0.151,0.01 0.151,0.013 0.151,0.014 0.149,0.016 0.15,0.018 0.148,0.02 0.149,0.022 0.147,0.023 0.147,0.025 0.146,0.027 0.146,0.029 0.145,0.031 0.144,0.032 0.144,0.034 0.143,0.036 0.143,0.038 0.141,0.039 0.141,0.041 0.14,0.043 0.14,0.044 0.139,0.046 0.137,0.048 0.138,0.049 0.136,0.051 0.136,0.052 0.135,0.055 0.134,0.055 0.133,0.058 0.132,0.058 0.131,0.061 0.131,0.062 0.13,0.063 0.129,0.065 0.128,0.067 0.127,0.068 0.126,0.069 0.125,0.071 0.124,0.073 0.123,0.074 0.123,0.075 0.121,0.077 0.12,0.078 0.119,0.079 0.119,0.081 0.117,0.083 0.116,0.083 0.115,0.085 0.114,0.087 0.114,0.088 0.111,0.089 0.111,0.09 0.11,0.092 0.109,0.093 0.107,0.094 0.106,0.095 0.106,0.097 0.104,0.098 0.102,0.099 0.102,0.101 0.1,0.101 0.1,0.103 0.098,0.104 0.096,0.105 0.096,0.107 0.094,0.107 0.093,0.109 0.092,0.109 0.09,0.111 0.089,0.112 0.088,0.113 0.086,0.114 0.085,0.115 0.084,0.117 0.082,0.117 0.081,0.118 0.08,0.119 0.078,0.121 0.077,0.121 0.075,0.122 0.074,0.124 0.072,0.124 0.071,0.125 0.07,0.126 0.068,0.127 0.066,0.128 0.065,0.129 0.064,0.13 0.062,0.13 0.06,0.132 0.059,0.132 0.057,0.133 0.056,0.134 0.054,0.135 0.053,0.135 0.051,0.137 0.049,0.137 0.047,0.138 0.046,0.139 0.045,0.139 0.042,0.14 0.041,0.141 0.04,0.142 0.037,0.142 0.036,0.143 0.034,0.144 0.033,0.144 0.03,0.146 0.029,0.145 0.027,0.147 0.025,0.146 0.024,0.148 0.022,0.148 0.02,0.149 0.018,0.149 0.016,0.15 0.014,0.15 0.012,0.151 0.011,0.152 0.009,0.152 0.006,0.152 0.005,0.153 0.003,0.154 0.001,0.154 -0.001,0.153 -0.003,0.154 -0.005,0.153 -0.006,0.152 -0.009,0.152 -0.011,0.152 -0.012,0.151 -0.014,0.15 -0.016,0.15 -0.018,0.149 -0.02,0.149 -0.022,0.148 -0.024,0.148 -0.025,0.147 -0.027,0.146 -0.029,0.146 -0.03,0.145 -0.033,0.144 -0.034,0.144 -0.036,0.143 -0.037,0.142 -0.04,0.142 -0.041,0.141 -0.042,0.14 -0.045,0.14 -0.046,0.138 -0.047,0.138 -0.049,0.137 -0.051,0.137 -0.053,0.135 -0.054,0.135 -0.056,0.134 -0.057,0.133 -0.059,0.133 -0.06,0.131 -0.062,0.131 -0.064,0.129 -0.065,0.129 -0.066,0.128 -0.068,0.127 -0.07,0.126 -0.071,0.126 -0.072,0.124 -0.074,0.123 -0.075,0.122 -0.077,0.122 -0.078,0.12 -0.08,0.119 -0.081,0.118 -0.082,0.118 -0.084,0.116 -0.085,0.115 -0.086,0.114 -0.088,0.113 -0.089,0.112 -0.09,0.111 -0.092,0.11 -0.093,0.108 -0.094,0.108 -0.096,0.106 -0.096,0.105 -0.098,0.104 -0.1,0.103 -0.1,0.102 -0.102,0.1 -0.102,0.099 -0.104,0.098 -0.106,0.097 -0.106,0.096 -0.107,0.094 -0.109,0.093 -0.11,0.091 -0.111,0.091 -0.111,0.089 -0.114,0.088 -0.114,0.086 -0.115,0.085 -0.116,0.084 -0.117,0.082 -0.119,0.081 -0.119,0.08 -0.12,0.078 -0.121,0.076 -0.123,0.076 -0.123,0.074 -0.124,0.072 -0.125,0.071 -0.126,0.07 -0.127,0.068 -0.128,0.066 -0.129,0.065 -0.13,0.064 -0.131,0.061 -0.131,0.061 -0.132,0.059 -0.133,0.057 -0.134,0.056 -0.135,0.054 -0.136,0.052 -0.136,0.051 -0.138,0.05 -0.137,0.047 -0.139,0.046 -0.14,0.044 -0.14,0.043 -0.141,0.041 -0.141,0.039 -0.143,0.038 -0.143,0.036 -0.144,0.034 -0.144,0.032 -0.145,0.031 -0.146,0.029 -0.146,0.027 -0.147,0.025 -0.147,0.024 -0.149,0.021 -0.148,0.02 -0.15,0.018 -0.149,0.016 -0.151,0.015 -0.151,0.012 -0.151,0.011 -0.152,0.008 -0.153,0.007 -0.153,0.005 -0.153,0.003 -0.154,0.001 -0.154,-0.001 -0.154,-0.003 -0.153,-0.005 -0.152,-0.007 -0.152,-0.008 -0.151,-0.011 -0.151,-0.012 -0.151,-0.015 -0.15,-0.016 -0.149,-0.018 -0.149,-0.02 -0.148,-0.021 -0.147,-0.024 -0.147,-0.025 -0.147,-0.027 -0.145,-0.029 -0.145,-0.031 -0.145,-0.032 -0.143,-0.034 -0.143,-0.036 -0.143,-0.038 -0.141,-0.039 -0.141,-0.041 -0.141,-0.043 -0.139,-0.044 -0.139,-0.046 -0.138,-0.047 -0.137,-0.05 -0.136,-0.051 -0.136,-0.052 -0.135,-0.054 -0.134,-0.056 -0.133,-0.057 -0.132,-0.059 -0.132,-0.061 -0.13,-0.061 -0.13,-0.064 -0.129,-0.065 -0.128,-0.066 -0.127,-0.068 -0.126,-0.07 -0.125,-0.071 -0.124,-0.072 -0.124,-0.074 -0.122,-0.076 -0.121,-0.076 -0.12,-0.078 -0.12,-0.08 -0.118,-0.081 -0.117,-0.082 -0.117,-0.084 -0.115,-0.085 -0.114,-0.086 -0.113,-0.088 -0.112,-0.089 -0.111,-0.091 -0.109,-0.091 -0.109,-0.093 -0.107,-0.094 -0.107,-0.096 -0.105,-0.097 -0.104,-0.098 -0.103,-0.099 -0.101,-0.1 -0.101,-0.102 -0.099,-0.103 -0.098,-0.104 -0.097,-0.105 -0.095,-0.106 -0.094,-0.108 -0.093,-0.108 -0.092,-0.11 -0.09,-0.111 -0.089,-0.112 -0.088,-0.113 -0.087,-0.114 -0.085,-0.115 -0.083,-0.116 -0.083,-0.118 -0.081,-0.118 -0.079,-0.119 -0.078,-0.12 -0.077,-0.122 -0.075,-0.122 -0.074,-0.123 -0.073,-0.124 -0.071,-0.126 -0.069,-0.126 -0.068,-0.127 -0.067,-0.128 -0.065,-0.129 -0.063,-0.129 -0.062,-0.131 -0.06,-0.131 -0.059,-0.133 -0.058,-0.133 -0.055,-0.134 -0.054,-0.135 -0.053,-0.135 -0.051,-0.137 -0.049,-0.137 -0.048,-0.138 -0.046,-0.138 -0.044,-0.14 -0.043,-0.14 -0.041,-0.141 -0.039,-0.142 -0.038,-0.142 -0.035,-0.143 -0.035,-0.144 -0.032,-0.144 -0.031,-0.145 -0.028,-0.146 -0.028,-0.146 -0.025,-0.147 -0.023,-0.148 -0.022,-0.148 -0.02,-0.149 -0.018,-0.149 -0.016,-0.15 -0.014,-0.15 -0.013,-0.151 -0.01,-0.152 -0.009,-0.152 -0.007,-0.152 -0.005,-0.153 -0.003,-0.154 -0.001,-0.153 0.001,-0.154 0.003,-0.154 0.005,-0.153 0.007,-0.152 0.009,-0.152 0.01,-0.152 0.013,-0.151 0.014,-0.15 0.016,-0.15 0.018,-0.149 0.02,-0.149 0.022,-0.148 0.023,-0.148 0.025,-0.146 0.028,-0.147 0.028,-0.145 0.031,-0.146 0.032,-0.144 0.035,-0.144 0.035,-0.143 0.038,-0.142 0.039,-0.142 0.041,-0.141 0.043,-0.14 0.044,-0.139 0.046,-0.139 0.048,-0.138 0.049,-0.137 0.051,-0.137 0.053,-0.135 0.054,-0.135 0.055,-0.134 0.058,-0.133 0.059,-0.132 0.06,-0.132 0.062,-0.13 0.063,-0.13 0.065,-0.129 0.067,-0.128 0.068,-0.127 0.069,-0.126 0.071,-0.125 0.073,-0.124 0.074,-0.124 0.075,-0.122 0.077,-0.121 0.078,-0.121 0.079,-0.119 0.081,-0.118 0.083,-0.117 0.083,-0.117 0.085,-0.115 0.087,-0.114 0.088,-0.113 0.089,-0.112 0.09,-0.111 0.092,-0.109 0.093,-0.109 0.094,-0.107 0.095,-0.107 0.097,-0.105 0.098,-0.104 0.099,-0.103 0.101,-0.101 0.101,-0.101 0.103,-0.099 0.104,-0.098 0.105,-0.097 0.107,-0.095 0.107,-0.094 0.109,-0.093 0.109,-0.092 0.111,-0.09 0.112,-0.089 0.113,-0.088 0.114,-0.087 0.115,-0.085 0.117,-0.083 0.117,-0.083 0.118,-0.081 0.12,-0.079 0.12,-0.078 0.121,-0.077 0.122,-0.075 0.124,-0.074 0.124,-0.073 0.125,-0.071 0.126,-0.069 0.127,-0.068 0.128,-0.067 0.129,-0.065 0.13,-0.063 0.13,-0.062 0.132,-0.061 0.132,-0.058 0.133,-0.058 0.134,-0.055 0.135,-0.055 0.136,-0.052 0.136,-0.051 0.137,-0.049 0.138,-0.048 0.139,-0.046 0.139,-0.044 0.141,-0.043 0.141,-0.041 0.141,-0.039 0.143,-0.038 0.143,-0.036 0.143,-0.034 0.145,-0.032 0.145,-0.031 0.145,-0.029 0.147,-0.027 0.147,-0.025 0.147,-0.023 0.148,-0.022 0.149,-0.02 0.149,-0.018 0.15,-0.016 0.151,-0.014 0.151,-0.013 0.151,-0.01 0.152,-0.009 0.152,-0.007 0.153,-0.005 0.154,-0.003 0.154,-10e-4 z m -0.283,2.002 -0.128,0.002 -0.127,0.004 -0.128,0.006 -0.126,0.007 -0.127,0.009 -0.125,0.01 -0.126,0.012 -0.124,0.014 -0.125,0.015 -0.123,0.016 -0.123,0.018 -0.123,0.02 -0.122,0.021 -0.122,0.022 -0.121,0.024 -0.121,0.026 -0.119,0.027 -0.12,0.028 -0.119,0.03 -0.118,0.031 -0.118,0.033 -0.117,0.034 -0.116,0.035 -0.116,0.037 -0.115,0.038 -0.115,0.04 -0.114,0.041 -0.113,0.042 -0.113,0.044 -0.112,0.044 -0.111,0.047 -0.111,0.047 -0.11,0.049 -0.109,0.051 -0.108,0.051 -0.108,0.053 -0.107,0.054 -0.107,0.055 -0.105,0.057 -0.105,0.057 -0.104,0.059 -0.104,0.061 -0.102,0.061 -0.102,0.063 -0.101,0.064 -0.1,0.065 -0.099,0.066 -0.099,0.067 -0.097,0.069 -0.097,0.07 -0.096,0.07 -0.095,0.072 -0.094,0.073 -0.093,0.075 -0.093,0.075 -0.091,0.076 -0.09,0.077 -0.09,0.079 -0.088,0.079 -0.088,0.081 -0.087,0.082 -0.085,0.082 -0.085,0.084 -0.084,0.085 -0.082,0.085 -0.082,0.087 -0.08,0.087 -0.08,0.089 -0.078,0.09 -0.078,0.09 -0.076,0.091 -0.076,0.093 -0.074,0.093 -0.073,0.094 -0.072,0.095 -0.07,0.096 -0.07,0.097 -0.069,0.097 -0.067,0.099 -0.066,0.099 -0.065,0.1 -0.064,0.101 -0.063,0.102 -0.061,0.102 -0.06,0.104 -0.059,0.104 -0.058,0.105 -0.057,0.105 -0.055,0.107 -0.054,0.107 -0.053,0.107 -0.051,0.109 -0.051,0.109 -0.049,0.11 -0.047,0.111 -0.046,0.111 -0.045,0.112 -0.044,0.113 -0.042,0.113 -0.041,0.114 -0.04,0.115 -0.038,0.115 -0.037,0.116 -0.035,0.116 -0.034,0.117 -0.033,0.118 -0.031,0.118 -0.03,0.119 -0.028,0.119 -0.027,0.12 -0.026,0.121 -0.024,0.121 -0.022,0.121 -0.021,0.123 -0.02,0.122 -0.018,0.124 -0.016,0.123 -0.015,0.124 -0.014,0.125 -0.012,0.125 -0.01,0.126 -0.009,0.126 -0.007,0.127 -0.006,0.127 -0.004,0.128 -0.002,0.128 -0.001,0.129 0.001,0.128 0.002,0.128 0.004,0.128 0.006,0.127 0.007,0.127 0.009,0.126 0.01,0.126 0.012,0.125 0.014,0.125 0.015,0.124 0.016,0.124 0.018,0.123 0.02,0.123 0.021,0.122 0.022,0.121 0.024,0.122 0.026,0.12 0.027,0.12 0.028,0.119 0.03,0.119 0.031,0.118 0.033,0.118 0.034,0.117 0.035,0.117 0.037,0.115 0.038,0.116 0.04,0.114 0.041,0.114 0.042,0.114 0.044,0.112 0.045,0.112 0.046,0.112 0.047,0.11 0.049,0.11 0.051,0.109 0.051,0.109 0.053,0.108 0.054,0.107 0.055,0.106 0.057,0.106 0.058,0.105 0.058,0.104 0.061,0.103 0.061,0.103 0.063,0.101 0.064,0.101 0.065,0.1 0.066,0.1 0.067,0.098 0.069,0.098 0.07,0.096 0.07,0.096 0.072,0.095 0.073,0.094 0.074,0.094 0.076,0.092 0.076,0.091 0.078,0.091 0.078,0.089 0.08,0.089 0.08,0.087 0.082,0.087 0.082,0.086 0.084,0.084 0.085,0.084 0.085,0.083 0.087,0.081 0.088,0.081 0.088,0.079 0.09,0.079 0.09,0.077 0.092,0.077 0.092,0.075 0.093,0.074 0.094,0.073 0.095,0.072 0.096,0.071 0.096,0.069 0.098,0.069 0.099,0.068 0.099,0.066 0.1,0.065 0.101,0.063 0.102,0.063 0.102,0.061 0.104,0.061 0.104,0.059 0.105,0.058 0.105,0.056 0.107,0.056 0.107,0.054 0.107,0.052 0.109,0.052 0.109,0.05 0.11,0.049 0.111,0.048 0.111,0.046 0.112,0.045 0.113,0.043 0.113,0.043 0.114,0.04 0.115,0.04 0.115,0.038 0.116,0.037 0.116,0.036 0.117,0.034 0.118,0.032 0.118,0.031 0.119,0.03 0.12,0.029 0.119,0.027 0.121,0.025 0.121,0.024 0.122,0.022 0.122,0.022 0.123,0.019 0.123,0.018 0.123,0.017 0.125,0.015 0.125,0.013 0.125,0.012 0.125,0.01 0.126,0.009 0.128,0.007 0.127,0.006 0.127,0.004 0.128,0.002 0.129,0.001 0.128,-0.001 0.129,-0.002 0.127,-0.004 0.127,-0.006 0.127,-0.007 0.127,-0.009 0.125,-0.01 0.125,-0.012 0.125,-0.013 0.124,-0.015 0.124,-0.017 0.123,-0.018 0.123,-0.019 0.122,-0.022 0.122,-0.022 0.121,-0.024 0.12,-0.025 0.12,-0.027 0.12,-0.029 0.118,-0.03 0.118,-0.031 0.119,-0.032 0.116,-0.034 0.117,-0.036 0.116,-0.037 0.115,-0.038 0.115,-0.04 0.114,-0.04 0.113,-0.043 0.113,-0.043 0.112,-0.045 0.111,-0.046 0.11,-0.048 0.11,-0.049 0.11,-0.05 0.108,-0.052 0.108,-0.052 0.107,-0.054 0.107,-0.056 0.105,-0.056 0.105,-0.058 0.104,-0.059 0.104,-0.061 0.102,-0.061 0.102,-0.062 0.101,-0.064 0.1,-0.065 0.099,-0.066 0.098,-0.068 0.098,-0.069 0.097,-0.069 0.096,-0.071 0.095,-0.072 0.094,-0.073 0.093,-0.074 0.092,-0.075 0.092,-0.077 0.09,-0.077 0.09,-0.079 0.088,-0.079 0.088,-0.081 0.086,-0.081 0.086,-0.083 0.085,-0.084 0.083,-0.084 0.083,-0.086 0.082,-0.087 0.08,-0.087 0.08,-0.089 0.078,-0.089 0.078,-0.091 0.076,-0.091 0.075,-0.092 0.074,-0.094 0.073,-0.094 0.072,-0.094 0.071,-0.097 0.07,-0.096 0.068,-0.098 0.068,-0.098 0.066,-0.1 0.065,-0.1 0.064,-0.101 0.062,-0.101 0.062,-0.103 0.06,-0.103 0.059,-0.104 0.058,-0.105 0.057,-0.106 0.055,-0.106 0.054,-0.107 0.053,-0.108 0.051,-0.109 0.05,-0.109 0.049,-0.11 0.048,-0.11 0.046,-0.112 0.045,-0.112 0.044,-0.112 0.042,-0.114 0.041,-0.114 0.039,-0.114 0.039,-0.115 0.036,-0.116 0.036,-0.117 0.034,-0.117 0.033,-0.118 0.031,-0.118 0.03,-0.119 0.028,-0.119 0.027,-0.12 0.025,-0.12 0.024,-0.122 0.023,-0.121 0.021,-0.122 0.019,-0.123 0.018,-0.123 0.017,-0.124 0.015,-0.124 0.013,-0.125 0.012,-0.125 0.011,-0.126 0.008,-0.126 0.008,-0.127 0.005,-0.127 0.004,-0.128 0.003,-0.128 0.001,-0.128 -0.001,-0.129 -0.003,-0.128 -0.004,-0.128 -0.005,-0.127 -0.008,-0.127 -0.008,-0.126 -0.011,-0.126 -0.012,-0.125 -0.013,-0.125 -0.015,-0.124 -0.017,-0.124 -0.018,-0.123 -0.019,-0.122 -0.021,-0.123 -0.023,-0.121 -0.024,-0.121 -0.025,-0.121 -0.027,-0.12 -0.028,-0.119 -0.03,-0.119 -0.031,-0.118 -0.033,-0.118 -0.034,-0.117 -0.036,-0.116 -0.036,-0.116 -0.039,-0.115 -0.039,-0.115 -0.041,-0.114 -0.042,-0.113 -0.044,-0.113 -0.045,-0.112 -0.046,-0.111 -0.048,-0.111 -0.049,-0.11 -0.05,-0.109 -0.051,-0.109 -0.053,-0.107 -0.054,-0.107 -0.055,-0.107 -0.057,-0.105 -0.058,-0.105 -0.059,-0.104 -0.06,-0.104 -0.062,-0.102 -0.062,-0.102 -0.064,-0.101 -0.065,-0.1 -0.066,-0.099 -0.068,-0.099 -0.068,-0.097 -0.07,-0.097 -0.071,-0.096 -0.072,-0.095 -0.073,-0.094 -0.074,-0.093 -0.075,-0.093 -0.076,-0.091 -0.078,-0.09 -0.078,-0.09 -0.08,-0.089 -0.08,-0.087 -0.082,-0.087 -0.083,-0.085 -0.083,-0.085 -0.085,-0.084 -0.086,-0.082 -0.086,-0.082 -0.088,-0.081 -0.089,-0.079 -0.089,-0.079 -0.09,-0.077 -0.092,-0.076 -0.092,-0.076 -0.093,-0.074 -0.094,-0.073 -0.095,-0.072 -0.096,-0.07 -0.097,-0.07 -0.098,-0.069 -0.098,-0.067 -0.099,-0.066 -0.1,-0.065 -0.101,-0.064 -0.102,-0.063 -0.103,-0.061 -0.103,-0.061 -0.104,-0.059 -0.105,-0.057 -0.105,-0.057 -0.107,-0.055 -0.107,-0.054 -0.108,-0.053 -0.108,-0.051 -0.11,-0.051 -0.11,-0.049 -0.11,-0.047 -0.112,-0.047 -0.111,-0.044 -0.113,-0.044 -0.114,-0.042 -0.114,-0.041 -0.114,-0.04 -0.115,-0.038 -0.116,-0.037 -0.117,-0.035 -0.117,-0.034 -0.117,-0.033 -0.119,-0.031 -0.118,-0.03 -0.12,-0.028 -0.12,-0.027 -0.12,-0.026 -0.121,-0.024 -0.122,-0.022 -0.122,-0.021 -0.123,-0.02 -0.123,-0.018 -0.124,-0.016 -0.124,-0.015 -0.125,-0.014 -0.125,-0.012 -0.126,-0.01 -0.126,-0.009 -0.127,-0.007 -0.127,-0.006 -0.127,-0.004 -0.129,-0.002 -0.128,-0.001 z" /></g></svg>
